<svg width="22" height="22" viewBox="0 0 22 22" fill="none" xmlns="http://www.w3.org/2000/svg">
<g id="&#240;&#159;&#166;&#134; icon &#34;cog&#34;">
<path id="Vector" d="M9.66355 0.400085L8.35432 3.51605C8.09248 3.5946 7.85682 3.72552 7.62116 3.85644L4.5052 2.54722L2.61991 4.4325L3.92914 7.54846C3.79821 7.81031 3.69348 8.01979 3.58874 8.28163L0.472778 9.59086V12.2093L3.58874 13.5185C3.69348 13.7804 3.79821 13.9899 3.92914 14.2517L2.61991 17.3677L4.5052 19.253L7.62116 17.9437C7.85682 18.0485 8.09248 18.1794 8.35432 18.2841L9.66355 21.4001H12.282L13.5912 18.2841C13.8269 18.1794 14.0887 18.0746 14.3244 17.9437L17.4404 19.253L19.3256 17.3677L18.0164 14.2517C18.1212 14.016 18.2521 13.7542 18.3568 13.5185L21.4728 12.2093V9.59086L18.3568 8.28163C18.2783 8.04597 18.1473 7.78412 18.0164 7.54846L19.3256 4.4325L17.4404 2.54722L14.3244 3.85644C14.0887 3.75171 13.8269 3.62078 13.5912 3.51605L12.282 0.400085L9.66355 0.400085ZM10.9728 6.94622C13.1461 6.94622 14.9005 8.70058 14.9005 10.8739C14.9005 13.0472 13.1461 14.8016 10.9728 14.8016C8.79946 14.8016 7.0451 13.0472 7.0451 10.8739C7.0451 8.70058 8.79946 6.94622 10.9728 6.94622Z" fill="white" fill-opacity="0.7"/>
</g>
</svg>
