<svg width="86" height="85" viewBox="0 0 86 85" fill="none" xmlns="http://www.w3.org/2000/svg">
<g id="Crown">
<path id="Vector" d="M63.1294 14.4099C64.7387 13.6316 65.8533 11.9893 65.8533 10.0832C65.8533 8.80981 65.3474 7.58852 64.447 6.68807C63.5465 5.78761 62.3252 5.28174 61.0518 5.28174C59.7784 5.28174 58.5571 5.78761 57.6566 6.68807C56.7562 7.58852 56.2503 8.80981 56.2503 10.0832C56.2503 12.0157 57.3913 13.6712 59.0336 14.4363C57.1341 24.7252 54.2189 32.3826 43.3693 34.0182C43.3693 34.0182 46.2911 48.6272 59.957 48.6272C73.6228 48.6272 75.0078 34.1633 75.0078 34.1633C63.9208 34.7305 62.9843 20.7943 63.1294 14.4099V14.4099Z" fill="#F19534"/>
<path id="Vector_2" d="M23.7016 14.4099C22.0923 13.6316 20.9777 11.9893 20.9777 10.0832C20.9777 8.80981 21.4836 7.58852 22.384 6.68807C23.2845 5.78761 24.5058 5.28174 25.7792 5.28174C27.0526 5.28174 28.2739 5.78761 29.1744 6.68807C30.0748 7.58852 30.5807 8.80981 30.5807 10.0832C30.5807 12.0157 29.4397 13.6712 27.7974 14.4363C29.6969 24.7252 32.6121 32.3826 43.4617 34.0182C43.4617 34.0182 40.5399 48.6272 26.8741 48.6272C13.2082 48.6272 11.8298 34.1699 11.8298 34.1699C22.9102 34.7305 23.8467 20.7943 23.7016 14.4099V14.4099Z" fill="#F19534"/>
<path id="Vector_3" d="M59.7723 48.6272C59.8316 48.6272 59.891 48.6338 59.9504 48.6338C63.7164 48.6338 66.5458 47.5324 68.6696 45.9429L59.7723 48.6272Z" fill="#FFCA28"/>
<path id="Vector_4" d="M79.4334 11.1451C77.2371 10.8483 75.1398 12.9391 74.7572 15.8015C74.5198 17.5889 75.0013 19.2576 75.9312 20.3326L74.3483 26.8951C74.3483 26.8951 71.9278 42.4011 59.6998 45.4614C49.9253 47.9083 46.3835 30.0148 45.5261 24.4878C47.386 23.5644 48.6721 21.6517 48.6721 19.4291C48.6721 16.3094 46.146 13.7833 43.0264 13.7833C39.9067 13.7833 37.3807 16.3094 37.3807 19.4291C37.3807 21.6649 38.6866 23.5974 40.5795 24.5076C39.9001 29.962 36.9058 47.262 26.353 45.4548C15.642 43.6147 10.9658 25.576 9.8841 20.669C11.1702 19.6137 11.8891 17.7538 11.6253 15.7554C11.2428 12.8863 8.97393 10.8286 6.55998 11.1517C4.14604 11.4749 2.50376 14.0603 2.8863 16.9228C3.16331 19.0069 4.44284 20.6624 6.04554 21.289L14.435 73.413C14.435 73.413 21.756 79.1973 43.0264 79.1973C64.2968 79.1973 71.6178 73.413 71.6178 73.413L80.027 21.1505C81.3857 20.4382 82.4542 18.8355 82.718 16.87C83.1071 14.001 81.6363 11.4419 79.4334 11.1451V11.1451Z" fill="#FFCA28"/>
<path id="Vector_5" d="M43.2902 65.9205C46.8381 65.9205 49.7142 62.4922 49.7142 58.2632C49.7142 54.0341 46.8381 50.6058 43.2902 50.6058C39.7423 50.6058 36.8662 54.0341 36.8662 58.2632C36.8662 62.4922 39.7423 65.9205 43.2902 65.9205Z" fill="#1B3A4B"/>
<path id="Vector_6" d="M43.2902 52.4988C43.5408 52.7758 43.7651 53.2836 43.2902 54.273C42.8153 55.2623 40.2563 56.6012 39.788 56.8716C39.3197 57.1486 39.0097 57.0233 38.8646 56.9112C38.1721 56.3571 38.4359 55.104 38.8844 54.3389C39.8474 52.6835 41.8854 50.9752 43.2902 52.4988V52.4988Z" fill="#006466"/>
<path id="Vector_7" d="M42.8153 61.119C42.0898 61.4686 39.7088 62.5305 40.4937 63.7902C40.9554 64.5355 41.9117 64.8521 42.7889 64.8916C43.6661 64.9312 44.5301 64.6542 45.3084 64.2519C49.0019 62.3392 49.2987 57.3134 48.5798 56.9309C47.8411 56.5352 47.3398 57.5575 46.9573 57.9928C45.7941 59.2954 44.3869 60.3575 42.8153 61.119V61.119Z" fill="#144552"/>
<path id="Vector_8" d="M78.675 51.9975C79.7039 46.3056 75.8785 44.881 75.8785 44.881C75.8785 44.881 73.4118 44.4325 72.251 50.8367C71.0902 57.2343 73.5569 57.6828 73.5569 57.6828C73.5569 57.6828 77.6395 57.6894 78.675 51.9975V51.9975Z" fill="#1B3A4B"/>
<path id="Vector_9" d="M76.9733 46.8267C77.8703 48.027 76.8084 49.8012 75.087 50.9818C74.5792 51.3314 73.9064 51.1995 73.8075 50.9093C73.5305 50.0782 73.6492 49.1351 74.0185 48.337C75.1134 45.9429 76.5182 46.2199 76.9733 46.8267V46.8267Z" fill="#006466"/>
<path id="Vector_10" d="M7.2261 52.169C6.19061 46.4837 10.0226 45.0525 10.0226 45.0525C10.0226 45.0525 12.4893 44.604 13.6501 51.0082C14.8109 57.4058 12.3442 57.8543 12.3442 57.8543C12.3442 57.8543 8.25499 57.8609 7.2261 52.169V52.169Z" fill="#1B3A4B"/>
<path id="Vector_11" d="M11.1966 46.9849C12.0804 47.6445 11.7177 48.5085 11.0515 49.1087C10.293 49.8012 9.71263 50.5597 9.06627 51.3445C8.96734 51.4632 8.85522 51.5952 8.69692 51.6281C8.39353 51.6941 8.1495 51.3841 8.05057 51.0873C7.76696 50.2563 7.81973 49.2801 8.24184 48.5151C9.44221 46.332 10.8536 46.7277 11.1966 46.9849V46.9849Z" fill="#006466"/>
<path id="Vector_12" d="M66.7372 57.5113C66.2821 60.1033 64.2045 61.9039 62.0874 61.5346C59.9702 61.1652 59.68 58.9557 60.1351 56.3637C60.5902 53.7717 61.6125 51.7864 63.723 52.1558C65.8402 52.5251 67.1922 54.9259 66.7372 57.5113V57.5113Z" fill="#4D194D"/>
<path id="Vector_13" d="M20.859 57.5113C21.3141 60.1033 23.3916 61.9039 25.5088 61.5346C27.6259 61.1652 27.9161 58.9557 27.4611 56.3637C27.006 53.7717 25.9837 51.7864 23.8731 52.1558C21.7626 52.5251 20.4105 54.9259 20.859 57.5113Z" fill="#4D194D"/>
<path id="Vector_14" d="M23.9259 55.7833C23.4444 56.3241 22.2704 57.4124 21.8549 56.5814C21.2877 55.4469 22.0725 53.7321 22.9695 53.1649C23.8665 52.5977 24.5986 53.0462 24.7239 53.554C24.8756 54.2004 24.3546 55.2952 23.9259 55.7833V55.7833Z" fill="#FFA8A4" fill-opacity="0.1"/>
<path id="Vector_15" d="M61.4542 57.4388C60.8012 57.3399 60.7287 55.0908 62.4831 53.3232C63.3207 52.479 64.5211 53.4815 64.2177 54.8336C63.9275 56.1197 62.648 57.6235 61.4542 57.4388V57.4388Z" fill="#FFA8A4" fill-opacity="0.1"/>
<path id="Vector_16" d="M72.7786 64.7993C68.8279 66.778 59.7657 72.0477 43.033 72.0477C26.3003 72.0477 17.2381 66.778 13.2874 64.7993C13.2874 64.7993 11.8694 65.5578 11.8694 66.3493V72.4237C11.8694 73.2349 12.2981 73.9802 12.9972 74.3957C16.0839 76.2161 25.489 80.5163 43.0396 80.5163C60.5901 80.5163 69.9953 76.2161 73.082 74.3957C73.4252 74.1934 73.7097 73.9051 73.9074 73.5593C74.1052 73.2135 74.2094 72.8221 74.2098 72.4237V66.3493C74.1966 65.5578 72.7786 64.7993 72.7786 64.7993V64.7993Z" fill="#FFCA28"/>
<path id="Vector_17" d="M26.907 73.1294C28.7538 73.4922 29.3144 73.6505 29.1891 74.6793C28.9319 76.7042 24.7305 76.2227 22.244 75.5697C17.1062 74.2177 16.0641 72.793 16.0641 71.5201C16.0641 70.3527 16.9611 70.2142 18.3461 70.7023C20.0016 71.2893 22.5606 72.2786 26.907 73.1294V73.1294Z" fill="#FFF59D"/>
<path id="Vector_18" d="M72.7786 66.1316C72.7786 66.1316 61.8499 72.3182 43.033 72.3182C24.2161 72.3182 13.2874 66.1316 13.2874 66.1316" stroke="#F19534" stroke-width="2.95679" stroke-miterlimit="10" stroke-linecap="round"/>
<path id="Vector_19" d="M18.577 32.7189C22.0858 30.2126 23.9721 25.7211 24.1369 18.5716C24.1501 17.9252 24.3348 17.734 24.6844 17.6944C25.245 17.635 25.3373 18.1429 25.3307 18.5056C25.1724 26.2224 24.1897 31.0436 20.2984 33.761C20.1071 33.8929 18.7418 34.7239 18.1614 34.1501C17.4689 33.4774 18.3527 32.8772 18.577 32.7189V32.7189Z" fill="#FFCA28"/>
<path id="Vector_20" d="M21.7889 10.2745C21.6768 9.08073 21.9538 6.93061 25.0867 5.95448C26.0034 5.67087 26.5706 6.11937 26.6762 6.46893C26.94 7.33953 26.1749 7.68249 25.8254 7.79462C23.418 8.57288 23.2993 9.77326 22.8046 10.5383C22.31 11.3034 21.8285 10.6373 21.7889 10.2745V10.2745Z" fill="#FFCA28"/>
<path id="Vector_21" d="M52.3788 31.136C55.5512 28.3198 57.6551 25.1737 59.0402 18.011C59.1655 17.3779 59.3502 17.2064 59.6931 17.2196C60.2538 17.2328 60.2801 17.7538 60.2208 18.11C59.0468 25.7475 57.9322 27.924 54.021 32.2573C53.5791 32.7453 52.5041 33.1872 51.8973 32.6794C51.3499 32.2243 51.983 31.4922 52.3788 31.136V31.136Z" fill="#FFCA28"/>
<path id="Vector_22" d="M57.0484 10.3339C56.9362 9.14012 57.2132 6.99 60.3461 6.01387C61.2629 5.73026 61.8301 6.17875 61.9356 6.52831C62.1994 7.39892 61.4343 7.74188 61.0848 7.854C58.6774 8.63227 58.5587 9.83265 58.0641 10.5977C57.576 11.3628 57.0879 10.6967 57.0484 10.3339V10.3339Z" fill="#FFCA28"/>
<path id="Vector_23" d="M21.6241 47.262C13.9601 43.7862 11.7045 34.7174 10.5041 30.7799C10.3458 30.2588 10.4249 29.7642 10.946 29.6059C11.467 29.4476 11.777 29.784 11.9419 30.305C12.8125 33.1609 16.196 42.6979 23.1806 45.4087C23.6885 45.6065 24.4799 46.088 24.0512 46.9124C23.7676 47.4467 22.8574 47.8226 21.6241 47.262V47.262Z" fill="#FFF59D"/>
<path id="Vector_24" d="M9.15195 16.2698C8.78261 15.5047 8.63091 14.7792 6.61929 13.9416C6.11144 13.7305 5.77507 13.2623 5.91357 12.7346C6.05208 12.207 6.57972 11.8113 7.34479 11.9432C9.83129 12.3719 10.3721 14.8979 10.4776 15.7751C10.5766 16.6194 9.5279 17.0349 9.15195 16.2698V16.2698Z" fill="#FFF59D"/>
<path id="Vector_25" d="M64.6793 47.262C72.3432 43.7862 74.5989 34.7174 75.7993 30.7799C75.9576 30.2588 75.8784 29.7642 75.3574 29.6059C74.8363 29.4476 74.5263 29.784 74.3615 30.305C73.4909 33.1609 70.1074 42.6979 63.1228 45.4087C62.6149 45.6065 61.8235 46.088 62.2522 46.9124C62.5358 47.4467 63.4459 47.8226 64.6793 47.262Z" fill="#FFF59D"/>
<path id="Vector_26" d="M77.1514 16.2698C77.5208 15.5047 77.6725 14.7792 79.6841 13.9416C80.1919 13.7305 80.5283 13.2623 80.3898 12.7346C80.2513 12.207 79.7237 11.8113 78.9586 11.9432C76.4721 12.3719 75.9313 14.8979 75.8257 15.7751C75.7268 16.6194 76.7821 17.0349 77.1514 16.2698V16.2698Z" fill="#FFF59D"/>
<path id="Vector_27" d="M39.9529 19.5148C40.3552 18.6903 41.0609 17.5625 43.3627 17.0876C44.2465 16.903 44.5038 16.5204 44.4246 15.94C44.2663 14.7331 42.7626 14.8188 41.9513 15.0101C39.2472 15.6432 38.647 18.044 38.5349 18.9937C38.4227 19.8973 39.5572 20.3392 39.9529 19.5148V19.5148Z" fill="#FFF59D"/>
</g>
</svg>
