<svg xmlns="http://www.w3.org/2000/svg" fill="none" viewBox="0 0 200 200"><g id="no-messages--social-media-no-messages"><g id="laptop"><path id="Vector" fill="#06062d" d="m123.848 92.837-96 17.981-.402 5.443 38.83 44.192 111.004-27.937.197-5.012-53.629-34.667Z"></path><path id="Vector_2" fill="#06062d" d="m123.848 92.837-96 17.981-5.311-74.076a6.584 6.584 0 0 1 6.225-7.045l87.529-4.594a6.588 6.588 0 0 1 6.928 6.511l.629 61.223Z"></path><path id="Vector_3" fill="#e0e0e3d9" d="m146.175 113.869-24.433-15.794a2.213 2.213 0 0 0-1.631-.315l-76.014 15.216a1.203 1.203 0 0 0-.636 2.004l18.757 20.037a1.783 1.783 0 0 0 1.705.512l81.903-19.62c.965-.225 1.173-1.51.351-2.041l-.002.001Z"></path><path id="Vector_4" fill="#e0e0e3d9" d="m133.241 133.649-8.171-6.006a2.192 2.192 0 0 0-1.814-.366l-20.432 4.872a1.203 1.203 0 0 0-.461 2.122l8.296 6.416c.431.337.995.454 1.529.308l20.673-5.34c.876-.215 1.173-1.41.38-2.004v-.002Z"></path><path id="Vector_5" fill="#e0e0e3d9" d="M33.336 33.344a5.573 5.573 0 0 0-5.274 5.972l4.749 66.318 86.173-16.143-.569-54.786c-.038-3.13-2.661-5.679-5.871-5.524l-79.208 4.163Z"></path><path id="Vector_6" fill="#1b1a19" d="m177.749 127.084-53.404-34.522-.626-60.955c-.049-3.976-3.369-7.205-7.454-7.004l-87.529 4.594a7.09 7.09 0 0 0-6.697 7.58l5.308 74.039c-.43 5.823-.474 5.549-.277 5.774 39.081 44.463 38.846 44.362 39.206 44.362l111.126-27.953a.498.498 0 0 0 .377-.465l.198-5.013a.5.5 0 0 0-.228-.437Zm-54.005-33.72 52.497 33.936-108.747 27.487-38.687-43.641 94.937-17.782ZM23.036 36.707a6.081 6.081 0 0 1 5.753-6.51c10.505-.554 87.725-4.601 87.824-4.601a6.087 6.087 0 0 1 6.106 6.023l.625 60.803-95.037 17.801-5.271-73.516Zm5.224 75.329 38.523 43.456-.794 3.876-38.028-43.28.299-4.052Zm148.536 20.086-109.87 27.652.824-4.019 109.203-27.602-.157 3.969Z"></path><path id="Vector_7" fill="#1b1a19" d="M140.569 109.884a.5.5 0 0 0-.595-.381l-9.434 2.069-8.837-6.293 7.409-1.624a.5.5 0 0 0-.214-.977l-8.294 1.818-7.586-5.402a.499.499 0 1 0-.58.814l6.848 4.877-9.94 2.179-6.822-5.561a.501.501 0 0 0-.632.775l6.206 5.06-10.607 2.325-6.261-5.805a.5.5 0 0 0-.68.733l5.751 5.333-11.103 2.435-6.298-6.215a.5.5 0 0 0-.704.711l5.836 5.759-11.019 2.416-6.04-6.436a.5.5 0 0 0-.729.685l5.632 6.001-12.014 2.634-6.277-6.686a.5.5 0 0 0-.729.685l5.869 6.251-9.51 2.085a.5.5 0 1 0 .214.976l10.093-2.213 6.411 6.829-9.791 2.147c-.646.143-.433 1.117.214.977l10.374-2.275 6.583 7.012c.432.432 1.147-.235.674-.74l-6.122-6.521 12.011-2.634 6.242 6.651a.5.5 0 1 0 .729-.685l-5.833-6.215 11.541-2.531 6.597 6.509c.445-.446.295-.271.646-.769l-6.077-5.996 11.545-2.532c7.195 6.671 6.661 6.253 6.94 6.253a.501.501 0 0 0 .34-.867l-6.09-5.647 11.577-2.539c7.596 6.192 7.034 5.797 7.289 5.797a.5.5 0 0 0 .316-.888l-6.358-5.183 11.039-2.421c8.365 5.957 7.695 5.529 7.923 5.529.486 0 .686-.626.291-.907l-6.896-4.911 8.548-1.875a.5.5 0 0 0 .381-.596h.003ZM67.073 125.49l-6.411-6.829 12.014-2.634 6.409 6.829-12.012 2.634Zm13.149-2.884-6.409-6.828 11.071-2.427 6.827 6.736-11.489 2.519Zm12.654-2.775-6.827-6.736 11.147-2.444 7.18 6.658-11.5 2.522Zm12.69-2.783-7.18-6.658 10.704-2.347 7.957 6.487-11.481 2.518Zm12.728-2.792-7.957-6.487 10.049-2.203 8.837 6.293-10.929 2.397Z"></path></g><g id="hand"><path id="Vector_8" fill="#e0e0e3d9" d="M115.757 153.43c-3.402 1.887-11.156 6.818-14.111 9.371-7.506-4.426-12.348-11.792-19.532-16.504-5.005-3.276-13.147-6.051-12.853-7.411.194-.899 3.145-.363 3.643-.285 2.931.456 5.815 1.435 8.574 2.524.519.205 2.304 1.331 2.882 1.141.402-.132-.651-.542-1.002-.775-5.799-3.854-13.045-6.478-12.1-7.33.877-.791 3.46 0 4.389.198 3.16.672 6.174 1.851 9.108 3.182 1.236.556 3.169 2.065 4.521 2.202.297.03-1.146-.984-1.39-1.156-4.19-2.956-6.921-3.857-11.405-5.933-.419-.194-2.273-.834-2.143-1.544.179-.98 2.809-.675 3.394-.622 3.739.339 7.359 1.997 10.659 3.687 4.247 2.16 4.648 2.716 4.748 2.582.154-.234-2.226-1.92-2.37-2.019-2.679-1.837-5.337-3.656-8.31-4.996-.212-.096-3.685-1.549-3.292-1.902.624-.56 2.451-.067 3.131.059 2.883.531 5.684 1.573 8.325 2.824 9.561 4.508 22.985 17.878 25.136 22.707h-.002Z"></path><path id="Vector_9" fill="#1b1a19" d="M161.004 173.973c-.852-1.385-39.894-20.936-43.509-21.789-.196-.048-.376-.049-1.44.516-5.094-7.541-16.286-18.217-25.22-22.429-3.602-1.707-5.981-2.354-8.785-2.932-1.265-.26-2.553-.474-3.217.128a.68.68 0 0 0-.191.535c.186 1.156 3.61 1.642 9.281 5.375-3.269-1.64-6.642-3.063-10.265-3.398-1.068-.099-3.566-.333-3.812 1.04-.185 1 1.288 1.613 2.168 1.979.115.048 5.201 2.263 7.287 3.357-2.841-1.208-5.22-1.989-7.55-2.485-1.39-.297-3.76-1.04-4.828-.08a.722.722 0 0 0-.239.639c.16 1.209 3.158 2.14 9.265 5.576-2.13-.785-4.52-1.531-7.046-1.91-1.793-.297-3.883-.487-4.13.684-.239 1.08 1.635 1.961 2.884 2.611 3.406 1.772 7.011 3.25 10.183 5.326 6.903 4.527 11.755 11.686 18.975 16.166-.59.568-.742.861-.802 1.068-.436 1.421 13.391 17.849 25.067 31.38a.5.5 0 0 0 .625.108c37.383-21.166 35.609-20.966 35.3-21.465h-.001Zm-78.617-28.094c-4.313-2.823-11.312-5.481-12.656-6.851.016-.016.402-.377 3.098.068 3.054.457 5.992 1.517 8.464 2.495.582.229 2.366 1.432 3.221 1.151.374-.123.426-.422.433-.511.05-.615-.856-.852-1.314-1.156-4.451-2.949-10.751-5.671-11.83-6.665.872-.33 3.033.288 3.739.438 2.695.574 5.473 1.545 9.007 3.149 1.183.532 4.738 3.136 5.237 1.925.16-.391-.162-.643-.472-.89-5.693-4.535-14.124-7.083-14.485-7.833 0 0 .156-.464 2.735-.223 4.738.442 9.889 3.12 14.371 5.704.913.565 1.289.797 1.621.353a.614.614 0 0 0 .077-.419c-.137-.657-2.572-2.279-2.572-2.279-6.471-4.673-8.777-5.025-10.944-6.257.638.002 1.468.194 2.089.314 2.566.498 5.253 1.387 8.203 2.784 8.624 4.065 19.811 14.722 24.766 22.008-3.613 2.043-10.613 6.541-13.578 9.005-7.238-4.389-12.102-11.648-19.208-16.31h-.002Z"></path></g><g id="mail"><path id="Vector_10" fill="#e0e0e3d9" d="M136.364 66.346c.24-7.072-.294-14.037-.963-21.029-.334-3.542-.294-7.272-1.123-10.735-.374-1.555-1.139-1.978-2.518-2.788-5.925-3.478-30.179-17.718-40.448-23.963a16.617 16.617 0 0 0-20.427 1.471C31.503 53.006 30.963 53.29 31.047 54.248c.16 2.099 1.832 7.633 2.273 8.97 4.092 12.502 4.108 15.011 6.31 23.422 2.317 9.195 4.148 7.667 17.807 5.347 12.887-2.179 57.284-9.264 66.549-10.895 14.078-2.483 11.896-1.818 12.379-14.746h-.001Z"></path><path id="Vector_11" fill="#1b1a19" d="M136.943 68.866c-.284-4.963.562-6.806-1.043-23.595-.331-3.52-.294-7.297-1.134-10.805-.275-1.142-.838-1.929-1.676-2.34-.782-.462-30.549-18.05-41.517-24.72C79.639.134 70.624 8.86 70.514 8.969L31.143 52.803c-.439.399-.644.912-.594 1.483.173 2.259 1.972 8.107 2.296 9.088 2.219 6.779 2.795 8.627 6.479 24.129.396 1.675.89 3.76 2.238 5.158 3.213 3.22 11.222.623 15.958-.181 6.344-1.073 67.873-11.101 68.633-11.206 9.502-1.305 11.349-2.605 10.789-12.409l.001.001ZM71.238 9.658c.085-.083 8.541-8.268 19.815-1.398 9.44 5.741 32.79 19.561 39.631 23.606-3.216.49-7.361 3.477-9.532 4.759-26.963 15.813-30.696 18.926-36.47 20.156-4.215.914-8.901-.355-13.031-.929-21.171-2.941-17.127-2.709-29.886-3.895-3.186-.294-6.314-.477-8.459-.066L71.238 9.658ZM40.114 86.513c-2.204-8.415-2.217-10.927-6.319-23.451-.451-1.368-2.094-6.838-2.249-8.858-.196-2.214 7.935-1.453 10.127-1.251 12.813 1.197 11.506 1.28 26.568 3.424C48.66 83.569 50.712 80.44 42.808 92.411c-1.753-1.252-2.174-3.824-2.695-5.897l.001-.001Zm85.904-6.229-71.202 11.72c-3.429.73-8.433 1.795-11.109.861 8.084-12.237 5.806-8.764 25.649-36.325.425.063 2.159.302 2.159.302 4.052.542 8.962 1.872 13.378.916 4.965-1.058 9.762-4.252 14.653-7.129 13.634 9.494 24.24 17.4 34.725 27.253-1.75 1.509-5.349 2.003-8.253 2.402Zm8.912-3.155c-10.423-9.791-20.955-17.661-34.433-27.056 3.647-2.133 22.044-13.125 22.582-13.465 3.899-2.464 9.712-6.083 10.715-1.908.815 3.404.78 7.15 1.112 10.667.741 7.75 1.188 14.281.96 20.962-.103 2.758.921 8.048-.935 10.801l-.001-.001Z"></path></g><g id="zero"><path id="Vector_12" fill="#ff4949" d="M128.196 44.047c7.582 0 13.729-6.147 13.729-13.729 0-7.582-6.147-13.729-13.729-13.729-7.582 0-13.729 6.147-13.729 13.729 0 7.582 6.147 13.729 13.729 13.729Z"></path><path id="Vector_13" fill="#1b1a19" d="M128.196 37.772c-2.782 0-5.044-3.343-5.044-7.453s2.263-7.469 5.044-7.469c2.829 0 5.044 3.281 5.044 7.469 0 4.188-2.216 7.453-5.044 7.453Zm0-13.422c-1.921 0-3.544 2.734-3.544 5.969 0 3.235 1.623 5.953 3.544 5.953s3.544-2.726 3.544-5.953c0-3.227-1.623-5.969-3.544-5.969Z"></path></g><g id="elements"><path id="Vector_14" fill="#06062d" d="M153.175 53.863a.5.5 0 0 1-.357-.85c2.341-2.388 9.933-10.678 11.204-11.763a.5.5 0 1 1 .649.761c-1.262 1.077-8.648 9.16-11.14 11.702a.499.499 0 0 1-.357.15h.001Z"></path><path id="Vector_15" fill="#06062d" d="M155.614 60.053c7.137-3.34 14.481-6.073 21.638-9.274a.5.5 0 1 1 .409.913c-7.138 3.192-14.543 5.953-21.623 9.266-.602.282-1.018-.627-.424-.906v.001Z"></path><path id="Vector_16" fill="#06062d" d="M157.453 68.435a.5.5 0 0 1-.475-.524.509.509 0 0 1 .524-.475c2.827.138 12.265.153 14.993-.012a.5.5 0 1 1 .06.998c-2.765.168-12.267.151-15.102.013Z"></path></g></g></svg>