<svg xmlns="http://www.w3.org/2000/svg" fill="none" viewBox="0 0 600 600" height="600" width="600"><g id="virtual-meeting-team--work-virtual-meeting-team"><g id="laptop"><g id="group"><path id="vector" fill="#ffffff" d="M471.82800000000003 317.952c-0.474 0 3.468 -115.905 3.51 -118.866 0.045 -3.2640000000000002 2.295 -37.2 -14.861999999999998 -43.038 -43.866 -14.931000000000001 -202.338 -14.865 -244.149 -5.631 -24.224999999999998 5.346 -24.299999999999997 30.555 -24.366 38.277 -0.11699999999999999 12.54 4.284 130.182 4.284 130.182 -3.969 5.742 -36.471000000000004 52.748999999999995 -40.458 68.565 -1.545 6.207 5.973000000000001 8.634 16.581 9.524999999999999 105.255 8.772 283.10699999999997 6.300000000000001 294.37800000000004 6.122999999999999 18.9 -0.30000000000000004 33.183 0.018000000000000002 32.646 -7.5 -0.765 -10.689 -26.703 -77.652 -27.564 -77.637Z" stroke-width="3"></path><path id="vector_2" fill="#501200" d="M500.18999999999994 392.457c-6.105 -22.746 -27.189 -74.844 -27.320999999999998 -74.937 1.065 -9.942 4.761 -117.42600000000002 4.6049999999999995 -135.57 -0.20400000000000001 -23.366999999999997 -7.464 -26.378999999999998 -20.025 -29.418 -45.417 -10.986 -158.268 -15.681000000000001 -232.695 -6.300000000000001C193.20000000000002 150.198 191.151 164.7 190.002 188.415c-1.6590000000000003 34.269 4.670999999999999 127.02000000000001 4.896 130.281 -4.026 5.79 -40.022999999999996 57.842999999999996 -40.986000000000004 68.69999999999999 -0.522 5.88 1.167 12.183 4.338 12.96 48.018 11.757 257.65500000000003 7.565999999999999 335.1 5.5680000000000005 5.817 -0.15000000000000002 8.411999999999999 -7.6259999999999994 6.84 -13.466999999999999Zm-296.1 -82.734c-0.6000000000000001 -8.847 -4.224 -114.162 -4.167 -116.55000000000001 0.618 -25.23 0.8519999999999999 -34.668 35.196 -38.622 48.900000000000006 -5.649 161.922 -5.754 211.86599999999999 5.6160000000000005 20.121 4.584 21.051000000000002 10.995000000000001 21.171 32.519999999999996 0.11399999999999999 20.4 -3.6870000000000003 107.72999999999999 -4.4670000000000005 116.685 -13.032 0.5940000000000001 -207.12 2.181 -259.611 0.35100000000000003h0.012Zm288.48 87.717c-165.3 4.482 -287.145 3.471 -333.831 -5.4a3.8729999999999998 3.8729999999999998 0 0 1 -2.805 -4.4670000000000005c0.44999999999999996 -8.916 37.158 -62.724000000000004 40.659000000000006 -67.77 54.471000000000004 2.19 275.322 -0.11399999999999999 274.84499999999997 -1.071a758.67 758.67 0 0 1 26.817 74.244c0.8160000000000001 3.0780000000000003 -4.071 4.38 -5.697 4.464h0.012Z" stroke-width="3"></path></g><g id="group_2"><path id="vector_3" fill="#501200" d="M287.226 391.731c-2.913 -0.153 -5.045999999999999 -2.325 -5.3100000000000005 -6.513a5.529 5.529 0 0 1 5.655 -5.964c3.7410000000000005 -0.267 75.123 -1.326 78.255 -0.276 7.14 2.4000000000000004 5.3580000000000005 12.245999999999999 -0.369 12.552 -28.257 1.5150000000000001 -60.599999999999994 1.113 -78.23100000000001 0.201Zm1.134 -10.863c-2.925 0.126 -4.308 1.32 -4.515 3.327a3.231 3.231 0 0 0 2.9459999999999997 3.771s72.633 0.14700000000000002 78.86099999999999 -0.7020000000000001a2.919 2.919 0 0 0 2.7 -3.1740000000000004c-0.099 -2.07 -1.6320000000000001 -3.0269999999999997 -3.6930000000000005 -3.2760000000000002 -3.066 -0.804 -69.63900000000001 -0.23399999999999999 -76.299 0.05399999999999999Z" stroke-width="3"></path><path id="vector_4" fill="#501200" d="M237.777 343.722c-10.581 -0.099 -9.966000000000001 -11.399999999999999 0.369 -11.870999999999999 9.531 -0.44699999999999995 12.033000000000001 11.991 -0.369 11.870999999999999Zm-5.64 -5.832c0.27 3.795 12.033000000000001 3.411 11.76 -0.384 -0.34800000000000003 -4.89 -12.135 -4.824 -11.76 0.384Z" stroke-width="3"></path><path id="vector_5" fill="#501200" d="M286.449 344.508c-10.581 -0.099 -9.963000000000001 -11.399999999999999 0.369 -11.874 9.531 -0.44399999999999995 12.033000000000001 11.991 -0.369 11.874Zm-5.64 -5.832c0.27 3.795 12.033000000000001 3.4079999999999995 11.763 -0.384 -0.35100000000000003 -4.89 -12.135 -4.824 -11.772 0.384h0.009000000000000001Z" stroke-width="3"></path><path id="vector_6" fill="#501200" d="M340.404 345.999c-10.581 -0.099 -9.966000000000001 -11.399999999999999 0.369 -11.874 9.531 -0.44399999999999995 12.027000000000001 11.994 -0.369 11.874Zm-5.64 -5.832c0.27 3.795 12.033000000000001 3.4079999999999995 11.76 -0.384 -0.34800000000000003 -4.89 -12.135 -4.824 -11.76 0.384Z" stroke-width="3"></path><path id="vector_7" fill="#501200" d="M389.09999999999997 345.792c-10.581 -0.099 -9.963000000000001 -11.399999999999999 0.369 -11.874 9.531 -0.44399999999999995 12.027000000000001 11.982000000000001 -0.369 11.874Zm-5.64 -5.832c0.273 3.795 12.033000000000001 3.4079999999999995 11.763 -0.384 -0.357 -4.89 -12.140999999999998 -4.824 -11.769 0.384h0.006Z" stroke-width="3"></path><path id="vector_8" fill="#501200" d="M435.90000000000003 346.068c-10.581 -0.099 -9.966000000000001 -11.399999999999999 0.369 -11.874 9.531 -0.44399999999999995 12.03 12.006 -0.369 11.874Zm-5.64 -5.832c0.27 3.795 12.033000000000001 3.4079999999999995 11.76 -0.384 -0.34800000000000003 -4.89 -12.135 -4.824 -11.76 0.384Z" stroke-width="3"></path><path id="vector_9" fill="#501200" d="M267.21 363.6c-10.581 -0.099 -9.963000000000001 -11.399999999999999 0.369 -11.874 9.531 -0.42599999999999993 12.020999999999999 12.003 -0.369 11.874Zm-5.64 -5.832c0.27 3.795 12.033000000000001 3.4079999999999995 11.763 -0.384 -0.35100000000000003 -4.8839999999999995 -12.135 -4.8149999999999995 -11.763 0.393v-0.009000000000000001Z" stroke-width="3"></path><path id="vector_10" fill="#501200" d="M315.882 364.395c-10.581 -0.099 -9.963000000000001 -11.399999999999999 0.369 -11.874 9.531 -0.44399999999999995 12.033000000000001 11.979 -0.369 11.874Zm-5.64 -5.832c0.273 3.795 12.033000000000001 3.4079999999999995 11.763 -0.384 -0.35100000000000003 -4.89 -12.135 -4.827 -11.763 0.384Z" stroke-width="3"></path><path id="vector_11" fill="#501200" d="M369.837 365.886c-10.581 -0.099 -9.966000000000001 -11.399999999999999 0.369 -11.874 9.531 -0.44399999999999995 12.033000000000001 11.988 -0.369 11.874Zm-5.64 -5.832c0.27 3.795 12.033000000000001 3.4079999999999995 11.76 -0.384 -0.357 -4.89 -12.131999999999998 -4.824 -11.757 0.384h-0.003Z" stroke-width="3"></path><path id="vector_12" fill="#501200" d="M418.52699999999993 365.679c-10.578 -0.099 -9.963000000000001 -11.399999999999999 0.369 -11.874 9.531 -0.44399999999999995 12.033000000000001 11.991 -0.369 11.874Zm-5.64 -5.832c0.273 3.795 12.033000000000001 3.4079999999999995 11.763 -0.384 -0.35100000000000003 -4.89 -12.135 -4.824 -11.763 0.384Z" stroke-width="3"></path></g></g><g id="hands"><g id="group_3"><path id="vector_13" fill="#fccac2" d="M201 444.07800000000003s51.255 -26.94 47.352000000000004 -36.921c-2.4899999999999998 -6.369000000000001 -21.419999999999998 10.452 -24.36 7.692 -4.917 -4.614 33.849 -43.467 25.641000000000002 -47.13 -7.305 -3.261 -33.498000000000005 26.375999999999998 -33.498000000000005 26.375999999999998s1.56 -9.783000000000001 13.631999999999998 -23.1c10.473 -11.547 9.024000000000001 -16.182000000000002 8.169 -16.734 -3.282 -2.0999999999999996 -20.573999999999998 8.046 -37.11 35.358 0 0 -0.10200000000000001 -9.258 9.3 -20.547 8.232000000000001 -9.899999999999999 10.008 -14.838 8.781 -15.674999999999999 -1.2269999999999999 -0.8370000000000001 -17.571 7.395 -27.528 27.441000000000003 0 0 3.4559999999999995 -16.572 1.653 -16.833 -4.389 -0.633 -23.859 29.247 -26.328 64.527 -0.024 0 22.32 6.218999999999999 34.296 15.546000000000001Z" stroke-width="3"></path><path id="vector_14" fill="#501200" d="M237.717 392.793c10.608 -14.274000000000001 16.458 -22.476 13.379999999999999 -25.013999999999996 -4.548 -3.7560000000000002 -9.978 -0.8999999999999999 -33.711 24a61.181999999999995 61.181999999999995 0 0 1 9.812999999999999 -16.215c8.786999999999999 -10.2 15.555 -20.201999999999998 10.845 -22.374000000000002 -6.564 -3.0300000000000002 -25.266000000000002 15.107999999999999 -35.913 32.865 1.857 -8.208 11.16 -19.977 12.921000000000001 -22.326 3.915 -5.229 5.946 -7.872 5.34 -9.801 -1.8359999999999999 -5.862 -19.5 7.161 -27.782999999999998 23.604 0.171 -0.6990000000000001 4.893 -14.907 -0.21599999999999997 -14.381999999999998 -5.4 0.5549999999999999 -21.942 28.353 -26.823 63.576a17.741999999999997 17.741999999999997 0 0 0 -2.52 -0.24c-11.7 0 -55.452000000000005 64.935 -51.644999999999996 71.85 16.5 29.94 71.883 29.223 75.6 22.785 4.518 -7.821000000000001 19.365000000000002 -69.624 17.604 -75.615a4.92 4.92 0 0 0 -1.056 -1.629c10.53 -5.559 50.784000000000006 -27.642000000000003 45.165 -37.695 -3.2009999999999996 -5.718 -21.189 9 -24.299999999999997 7.995 -1.395 -1.602 7.803 -13.977 13.299 -21.384Zm-14.748000000000001 22.665c2.787 3.4799999999999995 22.352999999999998 -11.715 24 -8.478 3.537 7.014 -25.221 25.221 -44.871 35.499 -6.6209999999999996 -5.553 -24.498 -13.26 -34.617 -15.408000000000001 5.1 -37.089 21.6 -61.748999999999995 25.095 -61.983000000000004 1.866 -0.126 -3.3420000000000005 19.776 -3.3600000000000003 19.968 -0.153 1.59 1.5270000000000001 1.335 1.8599999999999999 0.42000000000000004 7.6530000000000005 -21.051000000000002 25.955999999999996 -32.421 27.464999999999996 -31.022999999999996 0.789 0.726 -7.011000000000001 10.884 -11.028 16.404 -8.532 11.715 -8.312999999999999 20.301000000000002 -8.312999999999999 20.655a0.9810000000000001 0.9810000000000001 0 0 0 0.738 0.909 0.966 0.966 0 0 0 1.08 -0.45599999999999996c11.508 -21.495 31.200000000000003 -38.634 35.934 -37.176 2.493 0.768 -3.0300000000000002 10.05 -11.205 19.527a62.31 62.31 0 0 0 -11.783999999999999 21.258000000000003 0.9690000000000001 0.9690000000000001 0 0 0 1.0739999999999998 1.206 0.9690000000000001 0.9690000000000001 0 0 0 0.558 -0.279c25.368 -26.880000000000003 30.873 -30.039 34.284000000000006 -27.233999999999998 1.7999999999999998 1.5 -8.28 15.078 -13.701 22.377 -10.878 14.622 -15.299999999999999 21.204 -13.209 23.814Z" stroke-width="3"></path></g><g id="group_4"><path id="vector_15" fill="#fccac2" d="M415.5 459.231s-39.741 -33.177 -37.077 -38.79c2.664 -5.6129999999999995 21.717 11.733 23.826 10.773 2.109 -0.96 -5.577 -14.850000000000001 -11.553 -23.214000000000002 -5.976 -8.363999999999999 -13.986 -23.183999999999997 -10.575 -24.933 3.411 -1.7489999999999999 10.257 4.038 26.865000000000002 26.319 0 0 -0.8370000000000001 -5.49 -8.499 -17.364 -7.661999999999999 -11.874 -12.942 -18.408 -8.883 -21 5.229 -3.3449999999999998 18.738 12.993000000000002 29.951999999999998 33.525000000000006 -1.008 -13.644 -16.341 -30.777 -11.253 -33.723 3.9480000000000004 -2.289 13.553999999999998 9.777 21.81 28.326 0 0 -2.5709999999999997 -15.39 0.405 -15.645 7.158 -0.618 19.23 46.724999999999994 16.968 64.098a217.08300000000003 217.08300000000003 0 0 1 -31.986000000000004 11.628Z" stroke-width="3"></path><path id="vector_16" fill="#501200" d="M451.83299999999997 445.449c-0.8220000000000001 0.09 -1.845 0.28200000000000003 -2.949 0.513 1.341 -28.5 -13.620000000000001 -64.17 -18.384 -63.333 -4.371 0.768 -1.4249999999999998 12.969000000000001 -1.4040000000000001 13.089000000000002 -5.139 -12.456 -15.158999999999999 -29.265 -21.195 -25.776000000000003 -5.934 3.4290000000000003 6.8580000000000005 17.523 10.704 31.566000000000003 -11.235 -21.6 -23.739 -33.846000000000004 -28.863 -31.5 -8.811 4.011 10.953 23.829 15.684 36.402 -14.870999999999999 -19.914 -22.173000000000002 -27.543 -26.178000000000004 -23.946 -3.258 2.925 2.262 12.299999999999999 11.783999999999999 27.407999999999998 4.587 7.286999999999999 12.264 19.5 10.923 20.739 -2.958 0.279 -19.073999999999998 -17.718 -24.489 -10.857000000000001 -3.519 4.4399999999999995 23.205000000000002 28.070999999999998 36.495 39.369 -1.32 0.636 -2.457 1.596 -3.3000000000000003 2.793 -2.4000000000000004 5.769 4.059 66.30000000000001 8.514 75.411 3.261 6.680999999999999 48.792 5.699999999999999 73.38 -19.038 4.545 -4.572 -29.085 -74.118 -40.722 -72.84Zm-72.855 -24.509999999999998c2.4000000000000004 -2.961 9.702 2.64 15.051000000000002 6.753 4.851 3.729 7.539 5.795999999999999 9.051 4.428 2.598 -2.31 -2.0220000000000002 -9.959999999999999 -10.413 -23.289 -5.745 -9.126 -14.328 -22.799999999999997 -12.140999999999998 -24.93 2.823 -2.742 13.107 9.507 28.395 30.498a0.978 0.978 0 0 0 1.2209999999999999 0.258 0.966 0.966 0 0 0 0.46799999999999997 -1.158 119.982 119.982 0 0 0 -11.169 -21.705000000000002c-5.973000000000001 -9.024000000000001 -12.645 -17.558999999999997 -8.898 -20.04 3.1769999999999996 -2.0999999999999996 17.1 10.269 29.778 37.638a0.978 0.978 0 0 0 1.839 -0.44699999999999995c0 -0.318 -0.40800000000000003 -7.944000000000001 -7.02 -20.736 -4.143 -8.019 -8.315999999999999 -15.546000000000001 -6.42 -16.5 4.1339999999999995 -2.0999999999999996 16.422 16.461 21.552 32.949a0.9870000000000001 0.9870000000000001 0 0 0 0.43499999999999994 0.513 0.972 0.972 0 0 0 1.455 -0.8699999999999999c0 -0.048 -4.254 -19.926000000000002 -1.482 -19.908 2.937 0.018000000000000002 17.933999999999997 31.296 16.256999999999998 62.031a163.45499999999998 163.45499999999998 0 0 0 -31.182000000000002 11.7c-18.69 -15.897000000000002 -37.83 -34.388999999999996 -36.777 -37.185Z" stroke-width="3"></path></g></g><g id="glass"><path id="vector_17" fill="#ffffff" d="M480.45599999999996 423.59999999999997s7.164 10.308 33.981 11.502c26.817 1.194 36.558 -4.5329999999999995 36.558 -4.5329999999999995s13.982999999999999 -75.53699999999999 12.866999999999999 -80.556c-1.116 -5.019 -11.613 -19.098 -40.68 -20.511 -29.067 -1.4129999999999998 -43.314 6.021000000000001 -44.469 15.053999999999998 -1.155 9.033000000000001 1.194 75.273 1.7429999999999999 79.044Z" stroke-width="3"></path><path id="vector_18" fill="#501200" d="M562.872 365.70000000000005c1.2000000000000002 -8.676 1.947 -14.700000000000001 1.965 -14.895 0.387 -6.36 -11.253 -19.374000000000002 -40.998000000000005 -22.164 -40.71 -2.61 -45.693 12.972 -46.275000000000006 16.113 -0.126 0.6000000000000001 0.22199999999999998 77.02199999999999 2.331 79.668 11.58 14.499 62.456999999999994 14.261999999999999 71.628 6.765 0.9870000000000001 -0.81 2.616 -8.64 4.425000000000001 -19.146a20.856 20.856 0 0 0 25.008000000000003 -8.727c6.632999999999999 -10.656 7.848000000000001 -39.242999999999995 -18.084 -37.614000000000004Zm-12.639 63.92999999999999c-8.628 6.375 -55.769999999999996 7.5 -68.69999999999999 -6.369000000000001 -1.377 -4.179 -2.55 -74.69999999999999 -1.9860000000000002 -78.14399999999999 0.5369999999999999 -2.835 5.154 -16.941000000000003 44.138999999999996 -14.442 28.587 2.67 39.471000000000004 15.198 39.159000000000006 20.004 -0.11399999999999999 1.7189999999999999 -8.481 66.429 -12.611999999999998 78.94500000000001v0.006Zm25.074 -29.955c-3.942 6.1080000000000005 -10.2 8.040000000000001 -18.252 5.718 1.7039999999999997 -10.53 3.435 -22.614 4.869 -32.721000000000004 20.217 -1.467 18.294 19.368000000000002 13.383000000000001 26.997v0.006Z" stroke-width="3"></path><path id="vector_19" fill="#501200" d="M518.958 334.308c-18.444 -1.2000000000000002 -34.842 6.440999999999999 -35.058 11.907 -0.34500000000000003 8.76 20.196 13.847999999999999 39.269999999999996 13.998000000000001 60.486 0.477 31.973999999999997 -23.493000000000002 -4.212 -25.905Z" stroke-width="3"></path></g><g id="people"><path id="vector_20" fill="#ffffff" d="M294.063 114.46799999999999s66.56700000000001 -11.463000000000001 152.82 2.904c0 0 2.1719999999999997 80.47800000000001 -0.387 99.39599999999999 0 0 -26.625 5.699999999999999 -151.302 0.729 0.006 0.003 -4.749 -35.144999999999996 -1.131 -103.02900000000001Z" stroke-width="3"></path><path id="vector_21" fill="#ffb949" d="M371.67 165.519c11.67 -0.8340000000000001 20.445 -11.073 19.602 -22.869 -0.8459999999999999 -11.793 -10.988999999999999 -20.679 -22.659 -19.842 -11.67 0.8340000000000001 -20.445 11.07 -19.602 22.866 0.8459999999999999 11.796 10.988999999999999 20.679 22.659 19.845Z" stroke-width="3"></path><path id="vector_22" fill="#ffb949" d="M318.249 218.334s17.037 -41.937 52.467 -40.095c35.43 1.842 50.184000000000005 40.629 50.184000000000005 40.629s-39.489000000000004 2.0909999999999997 -102.651 -0.534Z" stroke-width="3"></path><path id="vector_23" fill="#501200" d="M371.70000000000005 166.61700000000002a22.5 22.5 0 1 1 20.567999999999998 -24.039 22.401 22.401 0 0 1 -20.567999999999998 24.039Zm-3.069 -42.900000000000006a20.490000000000002 20.490000000000002 0 0 0 -12.345 35.858999999999995 20.511 20.511 0 0 0 22.641 2.961 20.505 20.505 0 0 0 11.331 -19.821 20.381999999999998 20.381999999999998 0 0 0 -21.624000000000002 -18.993000000000002l-0.003 -0.006Z" stroke-width="3"></path><path id="vector_24" fill="#501200" d="M446.823 116.151c-35.858999999999995 -7.9350000000000005 -125.661 -8.475000000000001 -152.868 -2.649 -0.9870000000000001 0.20700000000000002 -2.334 0.504 -2.199 40.2 0.063 19.200000000000003 0.6000000000000001 44.099999999999994 1.605 56.469 0.6000000000000001 7.3500000000000005 1.1219999999999999 8.100000000000001 2.241 8.154 68.80499999999999 3.843 133.317 1.71 140.034 1.23 11.757 -0.8400000000000001 11.823 -1.9860000000000002 11.865 -2.7270000000000003 0.849 -14.879999999999999 1.416 -39.186 1.446 -61.922999999999995 0.045 -38.274 -1.107 -38.532 -2.1239999999999997 -38.754Zm-126.672 101.166c3.1229999999999998 -6.8999999999999995 19.155 -38.361000000000004 49.113 -38.25 32.793 0.12 48.900000000000006 36 50.304 39.162 -22.491 0.624 -57.768 0.5549999999999999 -99.417 -0.9119999999999999Zm125.36099999999999 -1.002c-1.8359999999999999 0.765 -10.365 1.443 -23.979 1.8599999999999999 0.018000000000000002 -0.168 -17.366999999999997 -41.724 -52.5 -40.980000000000004 -35.133 0.744 -50.025000000000006 37.605000000000004 -51.06 40.047a2261.772 2261.772 0 0 1 -21.785999999999998 -0.8999999999999999c-2.16 -6.819000000000001 -3.3480000000000003 -93.9 -1.371 -100.965 26.844 -5.532 116.08200000000001 -4.941 151.107 2.634 1.395 5.7299999999999995 1.401 66.009 -0.42299999999999993 98.304h0.012Z" stroke-width="3"></path><path id="vector_25" fill="#ffffff" d="M174.36599999999999 119.778c5.841 -4.269 76.944 -10.254000000000001 91.905 -4.899 2.0669999999999997 0.741 5.502000000000001 100.98599999999999 4.374 101.49 -4.47 1.995 -89.184 6.519 -91.884 3.918 -3.351 -3.2249999999999996 -6.159 -99.222 -4.3950000000000005 -100.509Z" stroke-width="3"></path><path id="vector_26" fill="#501200" d="M220.68599999999998 131.271A22.182000000000002 22.182000000000002 0 1 0 244.5 151.8a22.259999999999998 22.259999999999998 0 0 0 -23.814 -20.529Z" stroke-width="3"></path><path id="vector_27" fill="#501200" d="M266.835 113.919c-7.839 -4.545 -80.172 -0.30000000000000004 -91.227 4.0680000000000005 -1.2209999999999999 0.477 -1.854 0.99 -2.0580000000000003 1.6590000000000003 -1.428 4.716 1.035 93.828 3.99 101.049 0.558 1.362 3.327 1.7999999999999998 37.2 0.6000000000000001 56.637 -2.0010000000000003 57.19500000000001 -2.658 57.224999999999994 -4.836 0.30300000000000005 -23.201999999999998 -2.445 -100.97999999999999 -5.13 -102.53999999999999ZM270 213.11100000000002c-23.886 -42 -75.348 -35.64 -91.326 3.654 -3.0269999999999997 -18.9 -4.359 -91.701 -3.2249999999999996 -96.453 4.343999999999999 -4.569 81.696 -8.619 90.117 -4.776 1.389 4.737 4.1339999999999995 61.30200000000001 4.434 97.57499999999999Z" stroke-width="3"></path><path id="vector_28" fill="#ffffff" d="M290.307 233.14799999999997s54.039 -3.8309999999999995 96.762 1.6350000000000002c0 0 2.538 35.478 0.30000000000000004 56.478 -31.790999999999997 2.4000000000000004 -63.729 2.028 -95.457 -1.1099999999999999 0 0 -2.3970000000000002 -55.775999999999996 -1.605 -57.003Z" stroke-width="3"></path><path id="vector_29" fill="#501200" d="M336.981 244.323a12 12 0 1 0 12.921000000000001 11.124 12.078 12.078 0 0 0 -12.921000000000001 -11.124Z" stroke-width="3"></path><path id="vector_30" fill="#501200" d="M387.957 234.51300000000003c-2.544 -4.401 -93.633 -4.011 -97.80000000000001 -2.4000000000000004 -0.8340000000000001 0.324 -1.3860000000000001 0.54 -0.651 28.473 0.28500000000000003 10.905 0.8999999999999999 27.869999999999997 1.3800000000000001 29.928000000000004 0.8190000000000001 3.423 64.275 4.239 95.526 2.0010000000000003 0.7020000000000001 -0.048 1.578 -0.045 1.899 -0.657 0.96 -1.785 1.59 -53.958 -0.354 -57.345Zm-1.365 55.974000000000004c-0.28500000000000003 0.024 -15.558 0.921 -22.923000000000002 1.119 0 -0.129 -7.911 -17.660999999999998 -25.415999999999997 -18.6a27.299999999999997 27.299999999999997 0 0 0 -27.683999999999997 18c-9.471 -0.48 -16.026 -1.0499999999999998 -17.796 -1.4249999999999998 -0.8519999999999999 -6.192 -1.971 -50.346000000000004 -1.4129999999999998 -55.659000000000006 4.47 -1.0230000000000001 75.696 -2.157 94.842 1.614 1.479 3.0780000000000003 1.08 49.113 0.39 54.951Z" stroke-width="3"></path><path id="vector_31" fill="#ffffff" d="M180.52499999999998 236.88899999999998s58.176 -5.853 91.44300000000001 -3.0540000000000003c0 0 4.179 48 3.141 56.928 0 0 -71.235 6.213000000000001 -91.02 3.3449999999999998 0 0 -4.449 -47.289 -3.564 -57.219Z" stroke-width="3"></path><path id="vector_32" fill="#ff7449" d="M224.99400000000003 266.973a11.274000000000001 11.274000000000001 0 1 0 0 -22.548000000000002 11.274000000000001 11.274000000000001 0 0 0 0 22.548000000000002Z" stroke-width="3"></path><path id="vector_33" fill="#ff7449" d="M199.656 294.57s41.7 -0.477 52.11 -2.007c0 0 -6.345000000000001 -18.857999999999997 -26.619 -19.245 -18.84 -0.36 -25.491 21.252 -25.491 21.252Z" stroke-width="3"></path><path id="vector_34" fill="#501200" d="M225.873 268.029a12.366 12.366 0 1 1 11.892 -13.241999999999999 12.600000000000001 12.600000000000001 0 0 1 -11.892 13.241999999999999Zm-1.62 -22.65a10.356 10.356 0 1 0 11.502 9.552 10.59 10.59 0 0 0 -11.502 -9.552Z" stroke-width="3"></path><path id="vector_35" fill="#501200" d="M272.892 233.334c-1.7369999999999999 -1.7009999999999998 -51.228 -1.896 -92.13900000000001 2.628 -1.065 0.11699999999999999 -1.167 0.678 -1.092 6 0.096 6.9270000000000005 0.681 19.817999999999998 1.419 31.347 1.395 21.735 2.004 21.807000000000002 3.117 21.875999999999998 15.332999999999998 0.966 90.99600000000001 -1.272 92.049 -3.729 0.162 -0.381 -1.899 -56.697 -3.354 -58.122Zm-72.03 60.300000000000004c1.5 -3.633 7.293 -18.27 22.572 -19.362 16.62 -1.2000000000000002 25.022999999999996 13.5 27.102000000000004 17.669999999999998 -15.24 0.8310000000000001 -34.701 1.6350000000000002 -49.674 1.6860000000000002v0.006Zm73.539 -3.3839999999999995c-2.268 0.321 -10.698 0.942 -21.687 1.5630000000000002 -1.422 -3.0780000000000003 -10.314 -20.472 -29.375999999999998 -19.56 -16.854 0.771 -24 19.59 -24.642000000000003 21.375 -5.420999999999999 0 -10.17 -0.129 -13.754999999999999 -0.399 -1.17 -5.052 -3.7589999999999995 -49.199999999999996 -3.2489999999999997 -55.340999999999994 41.226 -4.5 84.615 -3.819 89.69999999999999 -3.0149999999999997 0.921 5.22 3.018 50.153999999999996 3.0089999999999995 55.376999999999995Z" stroke-width="3"></path></g><g id="chat bubbles"><g id="group_5"><path id="vector_36" fill="#ffffff" d="M105.30000000000001 346.71299999999997s-5.22 2.472 -13.457999999999998 -1.953c0 0 -31.293 10.347 -37.785000000000004 7.257 -6.492000000000001 -3.09 -13.839000000000002 -11.738999999999999 -17.073 -27.299999999999997 -3.234 -15.561 7.800000000000001 -23.942999999999998 23.256 -30.015C75.696 288.63 104.955 278.52 129 279.156c16.799999999999997 0.44399999999999995 19.799999999999997 17.682000000000002 21.084 26.906999999999996 1.869 13.457999999999998 0.315 19.5 -15.336 25.473A350.532 350.532 0 0 1 100.80000000000001 341.85a7.908 7.908 0 0 0 4.5 4.8629999999999995Z" stroke-width="3"></path><path id="vector_37" fill="#ffb949" d="M36.99 324.708s-10.026 0.636 -15.600000000000001 -12.129000000000001S13.017000000000001 286.20000000000005 20.97 278.37c8.982000000000001 -8.838000000000001 56.772 -30.969 81.666 -26.346 14.565000000000001 2.7 17.829 27.054000000000002 17.829 27.054000000000002a245.32799999999997 245.32799999999997 0 0 0 -49.878 11.738999999999999c-23.660999999999998 8.751 -36.242999999999995 14.235 -33.597 33.891000000000005Z" stroke-width="3"></path><path id="vector_38" fill="#501200" d="M133.82399999999998 278.454a43.596000000000004 43.596000000000004 0 0 0 -12.465 -0.192c-3 -18.438 -11.879999999999999 -25.653 -18.621 -27.246000000000002 -16.305 -3.7800000000000002 -75.97200000000001 13.941 -85.47 31.176 -7.461 13.553999999999998 4.839 43.449 19.11 43.851a50.175000000000004 50.175000000000004 0 0 0 5.505 15.158999999999999c4.199999999999999 7.422000000000001 9.219 11.856 13.799999999999999 12 14.100000000000001 0.42000000000000004 36.105000000000004 -7.437 36.3 -7.5a17.289 17.289 0 0 0 14.033999999999999 2.292c1.29 -0.30000000000000004 1.569 -1.6740000000000002 0.14400000000000002 -2.259 -3.423 -1.41 -3.945 -2.7840000000000003 -4.041 -3.354 0.5369999999999999 -0.165 40.443 -9.234 46.769999999999996 -18.417 5.691 -8.271 2.097 -41.478 -15.066 -45.51Zm-114.78 4.725C27.957 267 86.892 249.33300000000003 102.25200000000001 252.993c8.22 1.908 15.543 13.011 17.055 25.458000000000002 -26.259 2.7 -73.398 16.11 -81.327 30.500999999999998a24.255000000000003 24.255000000000003 0 0 0 -1.956 15.048c-12.279 -1.1280000000000001 -23.901 -28.329 -16.98 -40.821Zm128.208 39.599999999999994c-5.1 7.053 -33.384 14.52 -42.693 16.866 -4.5 1.134 -4.881 1.722 -4.821 2.769 0.07200000000000001 1.1760000000000002 1.857 2.856 3.5999999999999996 3.9749999999999996a15.078 15.078 0 0 1 -9.786 -2.0490000000000004 3.3810000000000002 3.3810000000000002 0 0 0 -3.2700000000000005 -0.192c-15.323999999999998 4.962 -26.931 7.2989999999999995 -34.524 7.044 -3.729 -0.162 -8.154 -4.5 -12.120000000000001 -10.974 -3 -4.914 -9.153 -21.822 -3.9000000000000004 -30.299999999999997 4.343999999999999 -7.038 20.669999999999998 -15.600000000000001 44.613 -22.296 19.854 -5.5649999999999995 37.8 -8.781 49.041000000000004 -7.178999999999999 7.059000000000001 1.0110000000000001 10.857000000000001 8.547 12.899999999999999 14.037 4.107 11.004000000000001 3.8760000000000003 24.243 0.96 28.287v0.012Z" stroke-width="3"></path><path id="vector_39" fill="#ffffff" d="M58.400999999999996 284.256a1.0110000000000001 1.0110000000000001 0 0 1 -0.339 -1.956c10.482000000000001 -3.819 19.029 -6.6000000000000005 41.979 -13.035a1.008 1.008 0 0 1 0.5429999999999999 1.941C60.900000000000006 282.321 59.699999999999996 284.265 58.400999999999996 284.256Z" stroke-width="3"></path><path id="vector_40" fill="#ffffff" d="M32.262 294.495a1.0110000000000001 1.0110000000000001 0 0 1 -0.8999999999999999 -1.419 1.014 1.014 0 0 1 0.43499999999999994 -0.48 177.174 177.174 0 0 1 19.362 -7.938 1.008 1.008 0 0 1 0.6900000000000001 1.893c-17.445 6.351 -18.698999999999998 7.949999999999999 -19.587 7.944000000000001Z" stroke-width="3"></path><path id="vector_41" fill="#501200" d="M50.77799999999999 315.627a1.0110000000000001 1.0110000000000001 0 0 1 -0.30000000000000004 -1.971c0.504 -0.153 50.661 -15.578999999999999 74.739 -21.558a1.0110000000000001 1.0110000000000001 0 0 1 0.486 1.959c-31.433999999999997 7.803 -73.854 21.579 -74.92500000000001 21.57Z" stroke-width="3"></path><path id="vector_42" fill="#501200" d="M117.321 316.20000000000005a1.0050000000000001 1.0050000000000001 0 0 1 -0.96 -0.8699999999999999 1.0170000000000001 1.0170000000000001 0 0 1 0.681 -1.104c6 -1.7639999999999998 15.189 -4.641 17.433 -5.415 1.395 -0.48 1.854 0.942 1.1280000000000001 1.5390000000000001a118.719 118.719 0 0 1 -18.282 5.85Z" stroke-width="3"></path><path id="vector_43" fill="#501200" d="M54.93600000000001 331.863c0.28200000000000003 -0.07500000000000001 28.347 -7.773000000000001 54.965999999999994 -15.600000000000001a1.0110000000000001 1.0110000000000001 0 0 1 1.1520000000000001 1.443 1.008 1.008 0 0 1 -0.579 0.489 3411.285 3411.285 0 0 1 -55.005 15.618000000000002c-1.5510000000000002 0.34800000000000003 -1.629 -1.6470000000000002 -0.534 -1.9500000000000002Z" stroke-width="3"></path></g><g id="group_6"><path id="vector_44" fill="#ff7449" d="M436.00800000000004 270.324a66.864 66.864 0 0 0 39.996 -6.702c19.830000000000002 -10.542 45.411 -33.354 69.444 -29.361000000000004 24.032999999999998 3.993 26.009999999999998 27.816000000000003 19.740000000000002 39.405 -6.27 11.589 -26.718000000000004 30.045 -56.46 31.232999999999997 -46.785000000000004 1.869 -72.72 -34.575 -72.72 -34.575Z" stroke-width="3"></path><path id="vector_45" fill="#501200" d="M516.159 305.427c-31.02 4.035 -62.781 -11.34 -80.895 -34.659000000000006a1.0110000000000001 1.0110000000000001 0 0 1 0.933 -1.617c29.186999999999998 4.287 50.77799999999999 -12.828 56.946 -16.746 20.22 -12.861 45.39 -28.857 66.951 -13.134 4.5 3.2729999999999997 9.036 11.577 9.057 21.116999999999997 0.045 24.585 -29.151000000000003 41.94 -52.992000000000004 45.039Zm-77.832 -34.059c25.044000000000004 30.411 74.025 45.924 111.53999999999999 18.323999999999998 14.298 -10.521 17.283 -21.741 17.268 -29.301a25.29 25.29 0 0 0 -8.229 -19.5c-20.454 -14.913 -43.95 0.026999999999999996 -64.68299999999999 13.200000000000001 -6.216 3.966 -27.297 20.409 -55.896 17.277Z" stroke-width="3"></path><path id="vector_46" fill="#ffffff" d="M549.4259999999999 257.439s-16.266 0.156 -36 1.2000000000000002c-1.293 0.069 -1.407 -2.013 -0.10500000000000001 -2.013 0.21599999999999997 0 21.717 -1.101 35.97 -1.2000000000000002a1.0110000000000001 1.0110000000000001 0 0 1 0.135 2.013Z" stroke-width="3"></path><path id="vector_47" fill="#ffffff" d="M532.53 280.869c-17.955000000000002 1.0859999999999999 -54.18899999999999 1.818 -54.55499999999999 1.827 -1.302 0.026999999999999996 -1.344 -2.0490000000000004 -0.042 -2.013 0.363 0 36.558 -0.741 54.477 -1.821a0.9990000000000001 0.9990000000000001 0 0 1 1.0619999999999998 0.9450000000000001 0.9930000000000001 0.9930000000000001 0 0 1 -0.942 1.0619999999999998Z" stroke-width="3"></path></g></g><g id="elements"><path id="vector_48" fill="#ff7449" d="M453.45000000000005 91.74600000000001a1.02 1.02 0 0 1 -0.996 -1.4040000000000001c0.09 -0.20700000000000002 9.062999999999999 -20.886 13.5 -30.630000000000003a1.008 1.008 0 0 1 1.833 0.8370000000000001c-14.094000000000001 30.903 -12.986999999999998 31.089 -14.337 31.196999999999996Z" stroke-width="3"></path><path id="vector_49" fill="#501200" d="m495.414 189.255 -3.684 0.135a1474.551 1474.551 0 0 1 -0.039 -8.331 1.014 1.014 0 0 0 -0.312 -0.678 1.02 1.02 0 0 0 -1.389 0 1.014 1.014 0 0 0 -0.312 0.678c0 0.30000000000000004 0 4.245 0.036000000000000004 8.399999999999999l-3.534 0.132a1.0110000000000001 1.0110000000000001 0 0 0 0.07500000000000001 2.016l3.4770000000000003 -0.129c0.036000000000000004 3.267 0.08700000000000001 6.339 0.171 7.557a1.0110000000000001 1.0110000000000001 0 0 0 2.013 -0.138c-0.081 -1.1760000000000002 -0.135 -4.236 -0.168 -7.5 0 0 3.7410000000000005 -0.138 3.8069999999999995 -0.14400000000000002a1.0110000000000001 1.0110000000000001 0 0 0 -0.14100000000000001 -1.9980000000000002Z" stroke-width="3"></path><path id="vector_50" fill="#ff7449" d="M110.13900000000001 204.627c-5.3580000000000005 0.384 -10.932 -7.923 -1.53 -15.981 -5.181 -3.9000000000000004 -13.407 -6.6000000000000005 -23.166 2.8169999999999997 -0.9179999999999999 0.8999999999999999 -2.34 -0.5429999999999999 -1.401 -1.452 11.355 -10.965 21.957 -6.765 26.247 -2.61a18.627 18.627 0 0 1 26.723999999999997 6.558 1.008 1.008 0 0 1 -1.83 0.8400000000000001 16.755 16.755 0 0 0 -23.355 -6c5.385 4.428 6.024 15.282 -1.6889999999999998 15.828Zm0.06 -14.613000000000001c-6.744000000000001 4.242 -5.79 12.995999999999999 0.08700000000000001 12.573 4.824 -0.34500000000000003 4.263 -9.495000000000001 -0.08700000000000001 -12.573Z" stroke-width="3"></path><path id="vector_51" fill="#ffb949" d="M139.8 164.10000000000002c-4.626 -3 -15 -9.036 -15.099 -9.102a1.0050000000000001 1.0050000000000001 0 0 1 1.0110000000000001 -1.7429999999999999c0.10500000000000001 0.063 10.517999999999999 6.12 15.189 9.156a1.008 1.008 0 0 1 -1.101 1.6889999999999998Z" stroke-width="3"></path><path id="vector_52" fill="#501200" d="M153.96 238.446c-0.378 0 -1.3920000000000001 0.048 -2.535 0.10200000000000001l-0.198 -6.2669999999999995a1.032 1.032 0 0 0 -1.0379999999999998 -0.9750000000000001 1.008 1.008 0 0 0 -0.9750000000000001 1.041l0.198 6.300000000000001 -2.577 0.135a1.008 1.008 0 0 0 0.05399999999999999 2.016l2.586 -0.135 0.18 5.6129999999999995a1.008 1.008 0 0 0 2.013 -0.066l-0.168 -5.646c1.1280000000000001 -0.056999999999999995 2.127 -0.099 2.481 -0.10200000000000001a1.008 1.008 0 1 0 -0.021 -2.016Z" stroke-width="3"></path><path id="vector_53" fill="#501200" d="M113.12100000000001 385.005h-4.0169999999999995v-9.021a1.02 1.02 0 0 0 -1.7369999999999999 -0.72 1.02 1.02 0 0 0 -0.29700000000000004 0.72c0 0.09 0.024 4.416 0.036000000000000004 8.985h-4.08a1.014 1.014 0 0 0 -0.756 1.7039999999999997 1.0110000000000001 1.0110000000000001 0 0 0 0.705 0.312H107.10000000000001c0 3.8520000000000003 0 7.461 -0.03 8.349a1.0110000000000001 1.0110000000000001 0 0 0 2.013 0.078c0.036000000000000004 -0.921 0.039 -4.53 0.033 -8.399999999999999H113.10000000000001a1.02 1.02 0 0 0 0.777 -0.249 1.026 1.026 0 0 0 0.336 -0.744 1.0110000000000001 1.0110000000000001 0 0 0 -1.092 -1.014Z" stroke-width="3"></path><path id="vector_54" fill="#ff7449" d="M471.86699999999996 98.92500000000001a1.0110000000000001 1.0110000000000001 0 0 1 -0.23399999999999999 -1.7039999999999997c0.177 -0.14100000000000001 16.065 -13.200000000000001 24.519 -19.764a1.0050000000000001 1.0050000000000001 0 0 1 1.608 0.921 1.002 1.002 0 0 1 -0.369 0.669c-24.857999999999997 19.352999999999998 -24.201 20.439 -25.523999999999997 19.878Z" stroke-width="3"></path><path id="vector_55" fill="#ff7449" d="M479.301 118.398a0.9990000000000001 0.9990000000000001 0 0 1 -0.10799999999999998 -1.3920000000000001 1.02 1.02 0 0 1 0.40800000000000003 -0.30000000000000004c0.21299999999999997 -0.078 11.7 -4.413 21.774 -8.033999999999999a1.014 1.014 0 0 1 1.272 0.612 1.002 1.002 0 0 1 -0.033 0.762 1.002 1.002 0 0 1 -0.5549999999999999 0.522c-22.629 8.139 -21.948 8.532 -22.758000000000003 7.83Z" stroke-width="3"></path><path id="vector_56" fill="#ffb949" d="M146.10000000000002 153.666c-3.351 -4.383 -11.100000000000001 -13.535999999999998 -11.181 -13.631999999999998a1.0110000000000001 1.0110000000000001 0 0 1 1.5390000000000001 -1.305c0.078 0.093 7.86 9.3 11.244 13.713a1.008 1.008 0 1 1 -1.602 1.224Z" stroke-width="3"></path></g></g></svg>